<svg width="24" height="24" viewBox="0 0 24 24" fill="none" xmlns="http://www.w3.org/2000/svg">
<path d="M6 8.22222V16.2778C6 18.0581 8.8855 19.5 12.4444 19.5C16.0034 19.5 18.8889 18.0581 18.8889 16.2778V8.22222M6 8.22222C6 10.0025 8.8855 11.4444 12.4444 11.4444C16.0034 11.4444 18.8889 10.0025 18.8889 8.22222M6 8.22222C6 6.44194 8.8855 5 12.4444 5C16.0034 5 18.8889 6.44194 18.8889 8.22222M18.8889 12.25C18.8889 14.0303 16.0034 15.4722 12.4444 15.4722C8.8855 15.4722 6 14.0303 6 12.25" stroke="#8D93A5" stroke-width="1.5" stroke-linecap="round" stroke-linejoin="round"/>
</svg>
